<svg viewBox="0 0 200 200" xmlns="http://www.w3.org/2000/svg">
  <path fill="#8A3FFC" d="M37.4,-66.5C49.8,-57.5,62.3,-50.4,72,-39.6C81.8,-28.8,88.7,-14.4,87.5,-0.7C86.3,13,76.9,26,67.9,38C58.9,50,50.3,61,39,67.3C27.7,73.7,13.9,75.3,-0.8,76.6C-15.4,77.9,-30.8,79,-41.2,72.2C-51.6,65.3,-57,50.7,-60.2,37.3C-63.4,24,-64.4,12,-66.6,-1.3C-68.9,-14.6,-72.4,-29.2,-68.1,-40.6C-63.8,-52,-51.6,-60.2,-39,-69C-26.3,-77.9,-13.2,-87.4,-0.4,-86.8C12.4,-86.2,24.9,-75.4,37.4,-66.5Z" transform="translate(100 100)" />
</svg>